<?xml version="1.0" standalone="no"?>
<!DOCTYPE svg PUBLIC "-//W3C//DTD SVG 20010904//EN"
 "http://www.w3.org/TR/2001/REC-SVG-20010904/DTD/svg10.dtd">
<svg version="1.0" xmlns="http://www.w3.org/2000/svg"
 width="1667.000000pt" height="1667.000000pt" viewBox="0 0 1667.000000 1667.000000"
 preserveAspectRatio="xMidYMid meet">
<metadata>
Created by potrace 1.11, written by Peter Selinger 2001-2013
</metadata>
<g transform="translate(0.000000,1667.000000) scale(0.100000,-0.100000)"
fill="#000000" stroke="none">
<path d="M70 11839 c-14 -5 -34 -22 -45 -37 -20 -27 -20 -45 -23 -2787 -2
-2612 -1 -2762 15 -2795 34 -67 15 -65 663 -67 395 -1 599 2 628 9 29 7 50 21
65 42 l22 31 3 2133 2 2132 444 0 444 0 0 -2113 c0 -2333 -5 -2159 63 -2208
l34 -24 547 -1 c607 -1 588 -3 630 65 l23 36 0 2120 0 2120 443 3 442 2 1
-142 c0 -79 0 -1030 0 -2114 0 -1953 0 -1972 20 -2012 41 -82 -2 -77 681 -77
601 0 607 0 635 21 15 12 37 36 48 55 20 34 20 57 20 2399 1 1881 -2 2380 -12
2440 -61 356 -313 638 -673 751 l-75 24 -2510 2 c-1586 1 -2519 -2 -2535 -8z"/>
<path d="M6814 11834 c-16 -8 -39 -29 -50 -47 -19 -32 -19 -74 -19 -2789 l0
-2757 21 -28 c11 -15 36 -36 55 -45 32 -17 146 -18 1967 -18 2164 0 1977 -7
2030 72 l25 39 0 584 c0 560 -1 584 -20 616 -10 19 -37 44 -58 56 l-39 22
-1193 0 c-1151 -1 -1195 0 -1226 18 -17 11 -42 34 -54 53 l-23 33 0 2051 c0
1933 -1 2053 -18 2086 -36 72 -11 70 -727 70 -550 0 -644 -3 -671 -16z"/>
<path d="M11788 11837 c-15 -7 -37 -25 -50 -42 l-23 -30 0 -2772 0 -2772 21
-28 c45 -60 19 -58 724 -58 632 0 646 0 680 21 69 40 65 -26 67 1072 2 1111
-4 1028 75 1072 l39 22 869 0 c832 1 870 0 901 -18 17 -11 41 -32 53 -47 21
-28 21 -29 22 -1005 1 -537 2 -987 3 -999 2 -35 67 -101 110 -112 20 -5 303
-9 656 -8 689 2 657 -1 707 69 l23 33 2 2749 2 2750 -21 37 c-11 20 -37 46
-58 58 -37 21 -44 21 -677 21 l-640 0 -33 -23 c-19 -12 -43 -38 -54 -57 -20
-34 -20 -49 -21 -995 0 -741 -3 -965 -13 -982 -7 -12 -29 -35 -49 -50 l-36
-28 -881 0 c-823 0 -883 1 -913 18 -68 36 -64 -22 -64 1030 0 541 -4 967 -10
987 -5 20 -23 49 -39 65 l-31 30 -657 2 c-498 2 -663 -1 -684 -10z"/>
<path d="M4 5705 c-2 -5 -3 -203 -2 -440 l3 -430 103 -1 c61 0 105 3 109 10 4
5 6 155 6 333 l-1 323 69 0 69 0 0 -324 c0 -247 3 -326 13 -334 15 -12 168
-13 184 0 8 6 11 81 12 256 0 136 0 282 1 325 l0 77 69 0 69 0 0 -326 c0 -240
3 -328 12 -334 13 -8 166 -11 193 -4 17 5 17 29 15 399 l-3 394 -30 31 c-16
18 -39 37 -50 43 -27 15 -835 17 -841 2z"/>
<path d="M1234 5710 c-34 -9 -75 -42 -91 -74 -15 -27 -17 -78 -18 -401 -1
-203 2 -377 7 -386 6 -14 23 -16 105 -14 54 1 101 3 106 4 4 0 7 60 7 131 0
97 3 130 13 131 52 5 260 3 269 -2 7 -4 11 -53 11 -128 0 -102 2 -123 16 -130
22 -11 183 -11 198 1 15 12 16 739 1 778 -12 33 -47 70 -78 83 -25 10 -510 17
-546 7z m402 -202 c4 -4 7 -52 7 -105 l1 -98 -120 -5 c-65 -3 -131 -4 -146 -2
l-28 3 0 103 c0 56 2 105 4 107 8 7 274 4 282 -3z"/>
<path d="M2459 5712 c-14 -3 -16 -37 -16 -321 0 -174 -3 -323 -7 -329 -8 -13
-215 -17 -217 -4 -1 4 -2 51 -3 105 -1 76 -4 100 -16 106 -12 6 -168 8 -202 2
-5 0 -8 -73 -8 -161 0 -129 3 -167 16 -193 42 -80 59 -85 329 -83 252 1 256 2
302 63 l27 36 1 384 c0 251 -3 387 -10 391 -10 6 -168 10 -196 4z"/>
<path d="M2940 5697 c-19 -9 -44 -30 -55 -45 -19 -26 -20 -45 -23 -365 -3
-374 -2 -385 62 -430 30 -21 39 -22 297 -23 402 -2 382 -26 382 440 0 361 -2
375 -72 418 -35 22 -44 23 -296 23 -229 0 -264 -2 -295 -18z m437 -422 l0
-225 -147 0 -147 0 0 225 0 225 147 0 147 0 0 -225z"/>
<path d="M3801 5698 c-3 -9 -6 -204 -5 -433 1 -322 4 -419 14 -425 7 -4 56 -7
109 -6 l96 1 5 130 5 130 78 0 79 0 50 -90 c28 -49 59 -107 70 -127 11 -21 25
-39 32 -39 49 -6 215 -6 225 0 11 7 -26 80 -110 218 l-19 31 34 21 c68 42 70
53 73 281 2 236 -6 269 -73 305 -35 19 -57 20 -347 20 -284 1 -310 -1 -316
-17z m505 -200 c8 -12 9 -187 1 -194 -5 -6 -52 -7 -248 -4 l-46 0 -1 97 c0 53
1 100 3 103 6 11 285 8 291 -2z"/>
<path d="M5191 5705 c-5 -5 -8 -202 -8 -437 0 -425 0 -427 21 -431 12 -3 139
-5 284 -4 196 0 267 3 276 12 14 14 16 171 3 193 -6 9 -53 12 -177 12 -114 0
-171 4 -176 11 -4 6 -7 153 -6 325 0 226 -3 316 -12 321 -17 12 -196 10 -205
-2z"/>
<path d="M5918 5712 c-10 -2 -19 -9 -19 -15 -1 -7 -2 -200 -3 -430 -1 -271 2
-421 9 -425 12 -8 608 -13 643 -6 22 4 23 8 20 102 l-3 97 -222 3 -223 2 0 74
0 73 186 0 c149 0 188 3 195 14 11 18 10 147 -2 155 -5 3 -92 5 -194 6 l-185
0 0 73 0 72 206 -1 c113 -1 214 2 225 6 17 7 19 17 19 103 0 52 -3 96 -7 96
-19 3 -630 4 -645 1z"/>
<path d="M6848 5697 c-21 -10 -47 -34 -59 -53 -20 -34 -21 -45 -21 -413 0
-209 2 -384 6 -389 3 -5 52 -9 108 -8 l103 1 3 124 c1 69 7 130 12 136 13 15
269 13 278 -2 4 -7 7 -61 7 -120 -1 -59 2 -115 6 -124 7 -13 26 -16 101 -16
51 0 99 4 106 9 9 8 12 96 12 380 0 411 -1 415 -65 464 l-38 29 -261 0 c-234
0 -264 -1 -298 -18z m432 -186 c3 0 5 -48 5 -106 l1 -105 -31 -1 c-37 -1 -235
-1 -252 0 -10 1 -13 29 -13 104 0 57 2 106 4 108 4 4 272 4 286 0z"/>
<path d="M7825 5712 c-39 -5 -94 -47 -110 -85 -18 -42 -15 -681 3 -717 7 -14
29 -37 49 -50 l37 -25 272 0 c261 0 274 1 301 21 61 45 67 71 68 263 0 116 -3
178 -11 185 -9 9 -161 14 -206 7 -4 0 -9 -58 -10 -128 l-3 -128 -134 -3 c-74
-1 -139 2 -144 7 -10 10 -13 414 -2 430 4 7 83 11 229 11 205 0 224 1 228 18
7 30 3 181 -6 189 -7 8 -498 12 -561 5z"/>
<path d="M8641 5712 c-8 -3 -11 -116 -11 -383 0 -530 -25 -498 385 -495 255 1
261 1 293 24 64 46 64 44 64 464 0 266 -3 382 -11 387 -14 9 -198 8 -206 -1
-4 -4 -7 -147 -7 -320 -1 -172 -3 -319 -5 -325 -4 -10 -42 -13 -143 -13 -101
0 -139 3 -142 13 -2 6 -4 153 -3 325 0 204 -3 316 -10 320 -11 7 -185 10 -204
4z"/>
<path d="M9579 5710 c-6 -4 -8 -168 -7 -441 l3 -434 322 -1 c177 -1 327 3 334
7 16 9 21 168 6 187 -7 9 -65 12 -228 12 l-218 0 2 73 2 72 188 1 c103 1 190
4 193 7 8 7 8 157 0 164 -3 3 -83 5 -178 5 -95 -1 -181 1 -190 4 -14 4 -16 17
-15 72 l2 67 218 1 c119 0 220 4 224 8 10 10 11 173 1 189 -5 9 -85 12 -328
12 -176 1 -325 -2 -331 -5z"/>
<path d="M10874 5705 c-2 -5 -3 -203 -2 -440 l3 -430 102 -2 c58 -1 105 2 108
8 4 5 7 74 7 152 0 78 2 150 5 160 4 15 19 17 144 17 104 0 139 -3 140 -12 1
-7 2 -80 3 -161 1 -115 4 -150 15 -157 15 -9 163 -12 194 -3 16 4 17 33 17
438 0 337 -3 434 -12 437 -21 8 -197 3 -205 -5 -4 -5 -8 -76 -8 -158 0 -99 -4
-152 -12 -157 -13 -8 -246 -7 -267 1 -11 4 -14 36 -14 157 1 83 -2 154 -6 158
-12 11 -208 8 -212 -3z"/>
<path d="M11885 5695 c-78 -41 -77 -36 -77 -464 0 -208 2 -383 6 -389 3 -5 51
-9 108 -8 l103 1 3 124 c1 69 7 130 12 136 10 12 264 14 277 2 4 -5 8 -62 8
-127 0 -65 4 -123 9 -127 12 -12 189 -13 204 -1 9 8 12 97 12 381 0 348 -1
373 -20 411 -12 26 -33 48 -56 61 -34 18 -57 20 -293 20 -241 0 -258 -1 -296
-20z m435 -184 c7 -1 6 -198 0 -205 -5 -4 -214 -9 -272 -7 -16 1 -18 13 -18
104 0 57 2 106 4 108 4 4 271 4 286 0z"/>
<path d="M12858 5711 c-48 -14 -79 -37 -96 -71 -18 -36 -19 -64 -19 -362 -1
-361 2 -375 64 -418 l37 -25 275 -1 c152 -1 281 2 287 7 14 12 15 179 1 197
-7 9 -63 12 -218 12 -155 0 -210 3 -216 13 -10 17 -11 398 -1 420 8 15 29 17
223 17 195 0 214 2 219 18 7 28 4 166 -4 182 -7 13 -49 15 -274 15 -146 0
-271 -1 -278 -4z"/>
<path d="M13621 5705 c-9 -13 -8 -846 2 -861 4 -8 40 -11 104 -9 54 1 101 3
105 4 3 0 6 40 6 89 0 133 0 137 23 163 49 57 90 99 97 99 4 0 47 -71 95 -158
48 -87 94 -167 101 -178 13 -17 28 -19 131 -20 89 -1 118 2 122 12 2 7 -11 37
-29 66 -76 118 -94 146 -104 167 -4 8 -41 68 -81 133 -40 64 -73 121 -73 126
0 4 8 17 18 28 9 10 67 78 127 149 60 72 120 141 132 155 13 14 22 29 20 35
-4 12 -214 15 -239 3 -9 -4 -87 -91 -174 -193 -87 -101 -160 -183 -162 -180
-3 3 -5 86 -5 185 0 120 -4 183 -11 188 -18 11 -196 9 -205 -3z"/>
<path d="M14581 5711 c-11 -7 -14 -870 -3 -872 4 -1 51 -3 105 -4 65 -2 99 1
104 8 12 19 10 858 -2 865 -13 8 -191 11 -204 3z"/>
<path d="M14999 5710 c-6 -4 -8 -176 -7 -441 l3 -434 100 -2 c55 -1 104 2 110
7 7 5 10 117 9 322 0 181 4 318 9 326 7 8 48 12 142 12 97 0 134 -3 137 -12 3
-7 5 -154 6 -327 0 -223 3 -316 11 -321 16 -9 184 -10 200 -1 17 11 19 741 2
784 -13 33 -25 46 -65 72 -28 18 -51 20 -338 20 -170 0 -314 -2 -319 -5z"/>
<path d="M16035 5712 c-32 -7 -74 -41 -92 -75 -15 -28 -17 -72 -18 -347 0
-173 3 -331 8 -352 11 -45 54 -87 99 -97 19 -5 148 -8 286 -7 237 1 252 2 278
22 67 49 69 58 70 260 1 126 -2 187 -10 191 -21 13 -188 10 -201 -4 -9 -9 -13
-46 -12 -123 0 -62 -4 -115 -9 -120 -7 -7 -64 -9 -145 -8 l-134 3 0 220 0 220
230 5 230 5 3 94 c2 59 -1 98 -8 105 -10 10 -525 17 -575 8z"/>
</g>
</svg>
